{"title":"Knight Rider (1982) S04 Season 4 Complete 720p BluRay x264-NTb","uid":12195551,"size":65356668688,"categoryP":"video","categoryS":"tv_shows","magnet":"?xt=urn:btih:b2b9f8af2c8dda0c304516315086d3a152e82b91&amp;dn=Knight+Rider+%281982%29+S04+Season+4+Complete+720p+BluRay+x264-NTb&amp;tr=udp%3A%2F%2Ftracker.openbittorrent.com%3A80&amp;tr=udp%3A%2F%2Fopen.demonii.com%3A1337&amp;tr=udp%3A%2F%2Ftracker.coppersurfer.tk%3A6969&amp;tr=udp%3A%2F%2Fexodus.desync.com%3A6969","seeders":0,"leechers":1,"uploader":"CowboyUncensored","files":22,"time":1438731470,"description":"Source: http://www.shaanig.com/f8/knight-rider-s04-720p-bluray-x264-ntb-3741009/\n\nMediaInfo\n\nGeneral\nComplete name : C:Knight Rider (1982)Knight.Rider.S04E01.Knight.of.the.Juggernaut.Part.1.720p.BluRay.x264-NTb.mkv\n Format : Matroska\n Format version : Version 4 / Version 2\n File size : 3.59 GiB\n Duration : 48mn 18s\n Overall bit rate : 10.6 Mbps\n Encoded date : UTC 2015-04-10 21:40:10\n Writing application : mkvmerge v7.8.0 ('River Man') 64bit built on Mar 27 2015 16:31:37\n Writing library : libebml v1.3.1 + libmatroska v1.4.2\n DURATION : 00:48:18.229000000\n NUMBER_OF_FRAMES : 69488\n NUMBER_OF_BYTES : 3578915919\n _STATISTICS_WRITING_APP : mkvmerge v7.8.0 ('River Man') 64bit built on Mar 27 2015 16:31:37\n _STATISTICS_WRITING_DATE_UTC : 2015-04-10 21:40:10\n _STATISTICS_TAGS : BPS DURATION NUMBER_OF_FRAMES NUMBER_OF_BYTES\n\nVideo\n ID : 1\n Format : AVC\n Format/Info : Advanced Video Codec\n Format profile : &lt;a class=&quot;__cf_email__&quot; href=&quot;/cdn-cgi/l/email-protection&quot; data-cfemail=&quot;a4eccdc3cce4e8908a95&quot;&gt;[email&amp;#160;protected]&lt;/a&gt;&lt;script data-cfhash='f9e31' type=&quot;text/javascript&quot;&gt;\n/* &lt;![CDATA[ */!function(){try{var t=&quot;currentScript&quot;in document?document.currentScript:function(){for(var t=document.getElementsByTagName(&quot;script&quot;),e=t.length;e--;)if(t[e].getAttribute(&quot;data-cfhash&quot;))return t[e]}();if(t&amp;&amp;t.previousSibling){var e,r,n,i,c=t.previousSibling,a=c.getAttribute(&quot;data-cfemail&quot;);if(a){for(e=&quot;&quot;,r=parseInt(a.substr(0,2),16),n=2;a.length-n;n+=2)i=parseInt(a.substr(n,2),16)^r,e+=String.fromCharCode(i);e=document.createTextNode(e),c.parentNode.replaceChild(e,c)}t.parentNode.removeChild(t);}}catch(u){}}()/* ]]&gt; */&lt;/script&gt;\n Format settings, CABAC : Yes\n Format settings, ReFrames : 11 frames\n Codec ID : V_MPEG4/ISO/AVC\n Duration : 48mn 18s\n Bit rate : 9 669 Kbps\n Width : 974 pixels\n Height : 720 pixels\n Display aspect ratio : 4:3\n Frame rate mode : Constant\n Frame rate : 23.976 fps\n Color space : YUV\n Chroma subsampling : 4:2:0\n Bit depth : 8 bits\n Scan type : Progressive\n Bits/(Pixel*Frame) : 0.575\n Stream size : 3.26 GiB (91%)\n Title : Knight.Rider.S04E01.Knight.of.the.Juggernaut.Part.1.720p.BluRay.x264-NTb\n Writing library : x264 core 146 r2538 121396c\n Encoding settings : cabac=1 / ref=11 / deblock=1:-3:-3 / analyse=0x3:0x133 / me=umh / subme=10 / psy=1 / psy_rd=0.95:0.00 / mixed_ref=1 / me_range=32 / chroma_me=0 / trellis=2 / 8x8dct=1 / cqm=0 / deadzone=21,11 / fast_pskip=0 / chroma_qp_offset=-2 / threads=12 / lookahead_threads=2 / sliced_threads=0 / nr=0 / decimate=0 / interlaced=0 / bluray_compat=0 / constrained_intra=0 / bframes=9 / b_pyramid=2 / b_adapt=2 / b_bias=0 / direct=3 / weightb=1 / open_gop=0 / weightp=2 / keyint=240 / keyint_min=23 / scenecut=40 / intra_refresh=0 / rc_lookahead=40 / rc=crf / mbtree=0 / crf=16.5 / qcomp=0.60 / qpmin=0 / qpmax=69 / qpstep=4 / vbv_maxrate=62500 / vbv_bufsize=78125 / crf_max=0.0 / nal_hrd=none / filler=0 / ip_ratio=1.40 / pb_ratio=1.30 / aq=2:0.70\n Language : English\n Default : Yes\n Forced : No\n\nAudio\n ID : 2\n Format : DTS\n Format/Info : Digital Theater Systems\n Mode : 16\n Format settings, Endianness : Big\n Codec ID : A_DTS\n Duration : 48mn 18s\n Bit rate mode : Constant\n Bit rate : 768 Kbps\n Channel count : 2 channels\n Channel positions : Front: L R\n Sampling rate : 48.0 KHz\n Bit depth : 24 bits\n Compression mode : Lossy\n Stream size : 265 MiB (7%)\n Title : English DTS 2.0 @ 768 Kbps\n Language : English\n Default : Yes\n Forced : No","torrent":{"xt":"urn:btih:b2b9f8af2c8dda0c304516315086d3a152e82b91","amp;dn":"Knight+Rider+%281982%29+S04+Season+4+Complete+720p+BluRay+x264-NTb","amp;tr":["udp%3A%2F%2Ftracker.openbittorrent.com%3A80","udp%3A%2F%2Fopen.demonii.com%3A1337","udp%3A%2F%2Ftracker.coppersurfer.tk%3A6969","udp%3A%2F%2Fexodus.desync.com%3A6969"],"infoHash":"b2b9f8af2c8dda0c304516315086d3a152e82b91","infoHashBuffer":{"type":"Buffer","data":[178,185,248,175,44,141,218,12,48,69,22,49,80,134,211,161,82,232,43,145]},"announce":[],"urlList":[]}}